<svg xmlns="http://www.w3.org/2000/svg" viewBox="0 0 64 64" width="64" height="64">
  <defs>
    <radialGradient id="g" cx="50%" cy="40%" r="65%">
      <stop offset="0%" stop-color="#12603f"/>
      <stop offset="100%" stop-color="#0a2a1f"/>
    </radialGradient>
  </defs>
  <circle cx="32" cy="32" r="30" fill="url(#g)" stroke="#f4c430" stroke-width="3"/>
  <g fill="#f4c430">
    <rect x="30" y="2.5" width="4" height="9" rx="1"/>
    <rect x="30" y="52.5" width="4" height="9" rx="1"/>
    <rect x="52.5" y="30" width="9" height="4" rx="1"/>
    <rect x="2.5" y="30" width="9" height="4" rx="1"/>
  </g>
  <circle cx="32" cy="32" r="20" fill="none" stroke="#f4c430" stroke-width="2" stroke-dasharray="3 5" opacity="0.6"/>
  <path d="M32 18c-4.5 6-11 9.2-11 15.2 0 3.4 2.6 5.8 5.9 5.8 2 0 3.8-1 4.6-2.6-.3 3-1.1 4.6-2.9 6.1h6.8c-1.8-1.5-2.6-3.1-2.9-6.1.8 1.6 2.6 2.6 4.6 2.6 3.3 0 5.9-2.4 5.9-5.8 0-6-6.5-9.2-11-15.2z" fill="#f5efe0"/>
</svg>
